<?xml version="1.0" standalone="no"?>
<!DOCTYPE svg PUBLIC "-//W3C//DTD SVG 20010904//EN"
 "http://www.w3.org/TR/2001/REC-SVG-20010904/DTD/svg10.dtd">
<svg version="1.0" xmlns="http://www.w3.org/2000/svg"
 width="390.000000pt" height="390.000000pt" viewBox="0 0 390.000000 390.000000"
 preserveAspectRatio="xMidYMid meet">
<metadata>
Created by potrace 1.11, written by Peter Selinger 2001-2013
</metadata>
<g transform="translate(0.000000,390.000000) scale(0.100000,-0.100000)"
fill="#000000" stroke="none">
<path d="M300 2550 l0 -750 150 0 150 0 0 450 0 450 75 0 75 0 0 75 0 75 150
0 150 0 0 -75 0 -75 75 0 75 0 0 -150 0 -150 75 0 75 0 0 150 0 150 75 0 75 0
0 75 0 75 150 0 150 0 0 -1200 0 -1200 150 0 150 0 0 1275 0 1275 -150 0 -150
0 0 75 0 75 -150 0 -150 0 0 -75 0 -75 -75 0 -75 0 0 -75 0 -75 -75 0 -75 0 0
75 0 75 -75 0 -75 0 0 75 0 75 -150 0 -150 0 0 -75 0 -75 -75 0 -75 0 0 150 0
150 -150 0 -150 0 0 -750z"/>
<path d="M2400 1875 l0 -1425 225 0 225 0 0 75 0 75 75 0 75 0 0 75 0 75 75 0
75 0 0 75 0 75 75 0 75 0 0 75 0 75 75 0 75 0 0 225 0 225 -75 0 -75 0 0 75 0
75 -75 0 -75 0 0 75 0 75 -75 0 -75 0 0 75 0 75 -75 0 -75 0 0 75 0 75 75 0
75 0 0 75 0 75 75 0 75 0 0 75 0 75 75 0 75 0 0 225 0 225 -75 0 -75 0 0 75 0
75 -75 0 -75 0 0 75 0 75 -75 0 -75 0 0 75 0 75 -225 0 -225 0 0 -1425z m450
1050 l0 -75 75 0 75 0 0 -225 0 -225 -75 0 -75 0 0 -75 0 -75 -75 0 -75 0 0
375 0 375 75 0 75 0 0 -75z m0 -1200 l0 -75 75 0 75 0 0 -75 0 -75 75 0 75 0
0 -225 0 -225 -75 0 -75 0 0 -75 0 -75 -75 0 -75 0 0 -75 0 -75 -75 0 -75 0 0
525 0 525 75 0 75 0 0 -75z"/>
</g>
</svg>
